<svg width="174" height="130" viewBox="0 0 174 130" fill="none" xmlns="http://www.w3.org/2000/svg">
<circle cx="87" cy="65" r="65" fill="#141516"/>
<path fill-rule="evenodd" clip-rule="evenodd" d="M0.541016 64.9762C1.19942 74.1239 8.82939 81.3408 18.145 81.3408C27.8928 81.3408 35.795 73.4386 35.795 63.6908C35.795 56.1378 31.0507 49.6929 24.3797 47.1735C21.8598 57.4088 12.6199 65 1.60687 65C1.24966 65 0.894322 64.992 0.541016 64.9762Z" fill="#141516"/>
<path fill-rule="evenodd" clip-rule="evenodd" d="M173.459 64.9762C172.801 74.1239 165.171 81.3408 155.855 81.3408C146.107 81.3408 138.205 73.4386 138.205 63.6908C138.205 56.1378 142.949 49.6929 149.62 47.1735C152.14 57.4088 161.38 65 172.393 65C172.75 65 173.106 64.992 173.459 64.9762Z" fill="#141516"/>
</svg>
