<svg width="23" height="23" viewBox="0 0 23 23" fill="none" xmlns="http://www.w3.org/2000/svg">
<g id="&#233;&#135;&#145;&#229;&#184;&#129; 2" clip-path="url(#clip0_1093_1039)">
<path id="Vector" d="M11.5212 21.9473C5.49367 21.9473 0.589844 17.0434 0.589844 11.0159C0.589844 4.9883 5.49367 0.0844727 11.5212 0.0844727C17.5488 0.0844727 22.4526 4.9883 22.4526 11.0159C22.4526 17.0434 17.5474 21.9473 11.5212 21.9473ZM11.5212 2.38957C9.23371 2.39175 7.04049 3.30144 5.42297 4.91897C3.80544 6.5365 2.89575 8.72971 2.89357 11.0172C2.89357 15.7756 6.76285 19.6463 11.5212 19.6463C16.2796 19.6463 20.1475 15.777 20.1475 11.0172C20.1457 8.72984 19.2363 6.53662 17.619 4.91905C16.0017 3.30148 13.8086 2.39175 11.5212 2.38957Z" fill="#F2D857"/>
<path id="Vector_2" d="M11.5063 17.2931L5.53223 11.175L11.6531 5.20093L17.6258 11.3218L11.5063 17.2931ZM7.97591 11.2052L11.5351 14.8522L15.1794 11.293L11.6243 7.64461L7.97591 11.2052Z" fill="#EFB82E"/>
</g>
<defs>
<clipPath id="clip0_1093_1039">
<rect width="22" height="22" fill="white" transform="translate(0.566406 0.0844727)"/>
</clipPath>
</defs>
</svg>
