<svg width="72" height="73" viewBox="0 0 72 73" fill="none" xmlns="http://www.w3.org/2000/svg">
<path d="M67.1036 4.62613H16.4156C8.49563 4.62613 2.01562 11.1061 2.01562 19.0261V65.1061C2.01562 66.6901 3.31163 67.9861 4.89563 67.9861H67.0316C68.6156 67.9861 69.9116 66.6901 69.9116 65.1061V7.50613C69.9836 5.92213 68.6876 4.62613 67.1036 4.62613ZM16.4156 10.3861H64.1516V33.4261C60.5516 33.4981 54.2876 34.3621 47.8076 38.0341L41.6156 30.4741C41.0396 29.7541 40.1756 29.3941 39.3116 29.3941C38.4476 29.3941 37.5836 29.8981 37.0796 30.6181L32.4716 37.0981L29.1596 31.6981C28.6556 30.8341 27.6476 30.2581 26.6396 30.3301C25.6316 30.3301 24.6956 30.9061 24.1916 31.8421L12.0956 54.1621C10.7276 54.1621 9.28762 54.2341 7.77562 54.2341V19.0261C7.77562 14.2741 11.6636 10.3861 16.4156 10.3861ZM29.8076 43.7941L32.6876 48.6181C32.9036 48.9061 33.1196 49.1941 33.4076 49.4101C29.5196 52.0741 25.5596 53.2981 18.8636 53.8021L26.8556 38.9701L29.8076 43.7941ZM37.7996 46.0261C37.7276 45.8821 37.7276 45.8101 37.6556 45.6661L35.7116 42.4261L39.5996 37.0261L43.0556 41.2741C42.4076 41.7781 41.7596 42.3541 41.1116 42.9301C39.8876 44.1541 38.8076 45.0901 37.7996 46.0261ZM7.77562 62.2261V59.9941C28.5116 59.8501 33.4796 57.9781 44.9996 47.2501C52.2716 40.4821 60.1916 39.3301 64.1516 39.1861V62.2261H7.77562Z" fill="#EC3E6F"/>
<path d="M46.6562 19.7461C46.6563 21.2738 47.2631 22.7388 48.3433 23.819C49.4235 24.8993 50.8886 25.5061 52.4162 25.5061C53.9439 25.5061 55.409 24.8993 56.4892 23.819C57.5694 22.7388 58.1763 21.2738 58.1763 19.7461C58.1763 18.2185 57.5694 16.7534 56.4892 15.6732C55.409 14.593 53.9439 13.9861 52.4162 13.9861C50.8886 13.9861 49.4235 14.593 48.3433 15.6732C47.2631 16.7534 46.6563 18.2185 46.6562 19.7461Z" fill="#EC3E6F"/>
</svg>
